<svg height="451.21207" width="371.21536" xmlns="http://www.w3.org/2000/svg"><g stroke="#000" transform="translate(-123.61564 -239.18029)"><path d="m189.91517 421.29684c87.003 206.80497 87.003 206.80497 87.003 206.80497" fill="none" stroke-width="9.115819"/><g fill="#00f"><path d="m297.14286 230.93361c0 24.45832-19.82739 44.28571-44.28571 44.28571-24.45833 0-44.28572-19.82739-44.28572-44.28571 0-24.45833 19.82739-44.28571 44.28572-44.28571 24.45832 0 44.28571 19.82738 44.28571 44.28571z" stroke-width="13.928744" transform="matrix(.5944225 0 0 .55495888 82.378509 253.7882)"/><path d="m468.57142 299.50504c0 26.03628-18.5482 47.14285-41.42857 47.14285-22.88036 0-41.42857-21.10657-41.42857-47.14285 0-26.03629 18.54821-47.14286 41.42857-47.14286 22.88037 0 41.42857 21.10657 41.42857 47.14286z" stroke-width="8.011812" transform="matrix(1.0743444 0 0 .9280577 -38.356312 53.572173)"/><path d="m331.42856 745.2193c0 24.45832-8.95431 44.28571-20 44.28571-11.0457 0-20-19.82739-20-44.28571s8.9543-44.28571 20-44.28571c11.04569 0 20 19.82739 20 44.28571z" stroke-width="9.561829" transform="matrix(.97694552 -.21348877 .14944214 .68386185 -66.822335 212.66316)"/><path d="m331.42856 745.2193c0 24.45832-8.95431 44.28571-20 44.28571-11.0457 0-20-19.82739-20-44.28571s8.9543-44.28571 20-44.28571c11.04569 0 20 19.82739 20 44.28571z" stroke-width="11.986973" transform="matrix(.71042472 .22708698 -.18183024 .56884237 216.8293 150.76171)"/><path d="m331.42856 745.2193c0 24.45832-8.95431 44.28571-20 44.28571-11.0457 0-20-19.82739-20-44.28571s8.9543-44.28571 20-44.28571c11.04569 0 20 19.82739 20 44.28571z" stroke-width="11.566963" transform="matrix(-.18378896 -.7754775 .58872539 -.11862383 -103.51742 894.88854)"/></g><path d="m405.71428 739.50507c0 46.54971-26.22332 84.28571-58.57143 84.28571-32.3481 0-58.57143-37.736-58.57143-84.28571 0-46.54972 26.22333-84.28572 58.57143-84.28572 32.34811 0 58.57143 37.736 58.57143 84.28572z" fill="#ff0" stroke-width="10.148728" transform="matrix(.99666742 0 0 .62345694 -6.520186 126.24544)"/><path d="m68.316832 363.93561a28.217821 30.198019 0 1 1 -56.435643 0 28.217821 30.198019 0 1 1 56.435643 0z" fill="#0f0" stroke-width="8" transform="matrix(.78320812 0 0 .86329909 296.80388 229.05758)"/><path d="m462.85714 432.36218c0 64.69622-51.80705 117.14286-115.71429 117.14286-63.90723 0-115.71428-52.44664-115.71428-117.14286 0-64.69621 51.80705-117.14286 115.71428-117.14286 63.90724 0 115.71429 52.44665 115.71429 117.14286z" fill="#f0f" stroke-width="8.6696" transform="matrix(.96296568 0 0 .88424198 3.765292 62.354518)"/><path d="m288.57143 440.93362c0 17.35753-2.55837 31.42858-5.71428 31.42858-3.15592 0-5.71429-14.07105-5.71429-31.42858 0-17.35752 2.55837-31.42857 5.71429-31.42857 3.15591 0 5.71428 14.07105 5.71428 31.42857z" stroke-width="4" transform="matrix(2.3511905 0 0 .78633002 -394.74787 83.316697)"/><path d="m397.14286 440.93362c0 25.24731-10.87308 45.71429-24.28571 45.71429s-24.28572-20.46698-24.28572-45.71429c0-25.2473 10.87309-45.71428 24.28572-45.71428s24.28571 20.46698 24.28571 45.71428z" stroke-width="4" transform="matrix(1.2011744 0 0 .94149839 -101.22194 18.169832)"/><path d="m331.42856 745.2193c0 24.45832-8.95431 44.28571-20 44.28571-11.0457 0-20-19.82739-20-44.28571s8.9543-44.28571 20-44.28571c11.04569 0 20 19.82739 20 44.28571z" fill="#00f" stroke-width="8.715869" transform="matrix(-1.009937 .24854877 -.15448879 -.79616845 822.00257 1100.1505)"/><path d="m-385.14853 296.11382-71.15193-71.7917-71.15192-71.7917 97.7494-25.72352 97.74939-25.72353-26.59747 97.51523z" fill="#b3b3b3" stroke-width="8" transform="matrix(-.28937703 -.1667936 -.2889824 -1.0420895 99.7232 485.5061)"/><path d="m-255.44554 205.51976c0 9.02247-6.42759 16.33663-14.35643 16.33663s-14.35644-7.31416-14.35644-16.33663 6.4276-16.33663 14.35644-16.33663 14.35643 7.31416 14.35643 16.33663z" fill="#ccc" stroke-width="22.89835" transform="matrix(.39032657 0 0 .31271123 380.31173 559.44089)"/><g fill="#f00" stroke-width="8" transform="matrix(.98517655 -.17154349 .17154349 .98517655 -53.298837 58.506362)"><path d="m-138.61386 192.15343c0 10.38951-15.29325 18.81188-34.15842 18.81188s-34.15841-8.42237-34.15841-18.81188c0-10.38952 15.29324-18.81188 34.15841-18.81188s34.15842 8.42236 34.15842 18.81188z" transform="matrix(1.6594434 0 0 1 598.58705 152.34788)"/><path d="m-154.45545 162.45045c0 6.5618-11.96863 11.88119-26.73268 11.88119-14.76404 0-26.73267-5.31939-26.73267-11.88119 0-6.56179 11.96863-11.88118 26.73267-11.88118 14.76405 0 26.73268 5.31939 26.73268 11.88118z" transform="translate(491.33747 160.26867)"/></g><path d="m324.50066 570.00852c-8.55867 55.97578 7.71644 70.97121 7.71644 70.97121" fill="none" stroke-width="7.65274"/><path d="m320.22473 618.77964c45.90194 4.87469 55.13587-12.12377 55.13587-12.12377" fill="none" stroke-width="6.819218"/><path d="m320.22473 618.77964c45.90194 4.87469 55.13587-12.12377 55.13587-12.12377" fill="none" stroke-width="8"/><path d="m322.86579 618.44071c-31.42194 4.87469-37.74299-12.12377-37.74299-12.12377" fill="none" stroke-width="8"/><g transform="translate(-163.15789 -13.815789)"><path d="m-178.21781 231.26234c0 44.01874-30.36485 79.70298-67.82179 79.70298-37.45693 0-67.82178-35.68424-67.82178-79.70298 0-44.01873 30.36485-79.70297 67.82178-79.70297 37.45694 0 67.82179 35.68424 67.82179 79.70297z" fill="#0ff" stroke-width="8" transform="matrix(.75398588 0 0 .73535722 778.35391 458.60136)"/><path d="m-225.74258 237.20294c0 8.47566-6.42759 15.34654-14.35643 15.34654s-14.35644-6.87088-14.35644-15.34654 6.4276-15.34653 14.35644-15.34653 14.35643 6.87087 14.35643 15.34653z" fill="#f0f" stroke-width="8" transform="matrix(.75398588 0 0 .73535722 786.85751 456.94266)"/><g fill="#0ff"><path d="m608.26694 644.31932c2.63657 35.32115-10.42679 43.05173-10.42679 43.05173" stroke-width="6.083298"/><path d="m606.50284 622.53359c7.73993-42.48303-11.76469-51.93256-11.76469-51.93256" stroke-width="5.801374"/><path d="m614.62394 632.66939c28.89059-2.97091 27.70393 9.45415 27.70393 9.45415" stroke-width="5.956906"/><path d="m596.19856 632.48795c-53.59034-6.07252-53.00927 9.1315-53.00927 9.1315" stroke-width="7.303832"/></g><path d="m-276.23763 369.38116c0 2.18727-1.77313 3.9604-3.9604 3.9604-2.18726 0-3.96039-1.77313-3.96039-3.9604 0-2.18726 1.77313-3.96039 3.96039-3.96039 2.18727 0 3.9604 1.77313 3.9604 3.96039z" fill="#000080" stroke-width="4" transform="matrix(.75398588 0 0 .73535722 810.56656 347.55601)"/><path d="m-276.23763 369.38116c0 2.18727-1.77313 3.9604-3.9604 3.9604-2.18726 0-3.96039-1.77313-3.96039-3.9604 0-2.18726 1.77313-3.96039 3.96039-3.96039 2.18727 0 3.9604 1.77313 3.9604 3.96039z" fill="#00f" stroke-width="4" transform="matrix(1.0324197 0 0 .92222943 905.94695 278.03226)"/></g></g></svg>